<svg width="310" height="310" viewBox="0 0 310 310" xmlns="http://www.w3.org/2000/svg">
    <circle cx="155" cy="155" r="155" fill="#444444"/>
    <path d="M94.5468 189.834H104.648V120.376H94.2344V172.443L56.4336 120.376H45.7078V189.834H56.1212V136.517L94.5468 189.834Z" fill="white"/>
    <path d="M117.13 155.157C117.13 176.817 133.271 191.188 153.161 191.188C164.928 191.188 174.508 186.293 181.173 178.9V153.387H148.475V162.551H170.759V175.047C167.427 178.171 160.867 181.92 153.161 181.92C138.686 181.92 127.856 170.673 127.856 155.157C127.856 139.537 138.686 128.499 153.161 128.499C161.283 128.499 168.26 132.56 172.217 137.871L180.652 132.977C174.821 125.166 166.177 119.231 153.161 119.231C133.271 119.231 117.13 133.497 117.13 155.157Z" fill="white"/>
    <path d="M211.053 189.834H221.466V129.54H242.918V120.376H189.497V129.54H211.053V189.834Z" fill="white"/>
    <path d="M253.773 189.834H264.187V120.376H253.773V189.834Z" fill="white"/>
</svg>
